<?xml version="1.0" encoding="UTF-8" standalone="no"?>
<svg
   xmlns:dc="http://purl.org/dc/elements/1.1/"
   xmlns:cc="http://creativecommons.org/ns#"
   xmlns:rdf="http://www.w3.org/1999/02/22-rdf-syntax-ns#"
   xmlns:svg="http://www.w3.org/2000/svg"
   xmlns="http://www.w3.org/2000/svg"
   viewBox="0 0 58.291626 59.97625"
   height="59.97625"
   width="58.291626"
   xml:space="preserve"
   version="1.1"
   id="svg2"><metadata
     id="metadata8"><rdf:RDF><cc:Work
         rdf:about=""><dc:format>image/svg+xml</dc:format><dc:type
           rdf:resource="http://purl.org/dc/dcmitype/StillImage" /></cc:Work></rdf:RDF></metadata><defs
     id="defs6"><clipPath
       id="clipPath12"
       clipPathUnits="userSpaceOnUse"><path
         id="path14"
         d="m 0,0 595.28,0 0,841.89 L 0,841.89 0,0 Z" /></clipPath><clipPath
       id="clipPath22"
       clipPathUnits="userSpaceOnUse"><path
         id="path24"
         d="m 0,0 595.28,0 0,841.89 L 0,841.89 0,0 Z" /></clipPath></defs><g
     clip-path="url(#clipPath12)"
     transform="matrix(1.25,0,0,-1.25,-341.778,581.99837)"
     id="g10"><g
       id="g16" /><g
       id="g18"><g
         clip-path="url(#clipPath22)"
         id="g20"><path
           id="path26"
           style="fill:#2b2b2a;fill-opacity:1;fill-rule:nonzero;stroke:none"
           d="m 160.428,286.091 272.127,0 0,272.126 -272.127,0 0,-272.126 z" /><g
           transform="translate(252.2526,384.9992)"
           id="g28"><path
             id="path30"
             style="fill:none;stroke:#e1a21b;stroke-width:0.5;stroke-linecap:butt;stroke-linejoin:miter;stroke-miterlimit:10;stroke-dasharray:none;stroke-opacity:1"
             d="m 0,0 0.107,-1.387 -0.113,0 c -0.101,0.342 -0.252,0.604 -0.422,0.778 -0.246,0.252 -0.564,0.381 -0.959,0.381 -0.531,0 -0.945,-0.227 -1.213,-0.668 -0.234,-0.373 -0.345,-0.821 -0.345,-1.327 0,-0.418 0.068,-0.81 0.23,-1.15 0.152,-0.35 0.356,-0.6 0.604,-0.762 0.256,-0.156 0.519,-0.236 0.779,-0.236 0.162,0 0.303,0.016 0.447,0.061 0.145,0.041 0.283,0.103 0.416,0.187 l 0,1.26 c 0,0.224 -0.01,0.371 -0.047,0.441 -0.029,0.063 -0.08,0.113 -0.148,0.149 -0.065,0.035 -0.182,0.052 -0.359,0.052 l 0,0.123 1.625,0 0,-0.123 -0.079,0 c -0.158,0 -0.271,-0.052 -0.334,-0.164 -0.041,-0.082 -0.06,-0.244 -0.06,-0.478 l 0,-1.352 C -0.105,-4.35 -0.342,-4.443 -0.566,-4.502 -0.803,-4.572 -1.057,-4.6 -1.338,-4.6 c -0.81,0 -1.426,0.264 -1.848,0.815 -0.314,0.404 -0.472,0.881 -0.472,1.414 0,0.391 0.094,0.76 0.263,1.115 0.209,0.424 0.502,0.742 0.866,0.973 0.306,0.185 0.674,0.283 1.092,0.283 0.152,0 0.292,-0.014 0.414,-0.037 0.127,-0.027 0.306,-0.09 0.537,-0.182 0.107,-0.037 0.185,-0.064 0.226,-0.064 0.043,0 0.069,0.021 0.1,0.055 0.029,0.039 0.049,0.123 0.053,0.228 L 0,0 Z" /></g><g
           transform="translate(263.4167,384.7805)"
           id="g32"><path
             id="path34"
             style="fill:none;stroke:#e1a21b;stroke-width:0.5;stroke-linecap:butt;stroke-linejoin:miter;stroke-miterlimit:10;stroke-dasharray:none;stroke-opacity:1"
             d="m 0,0 0,0.117 1.477,0 L 1.477,0 1.316,0 C 1.154,0 1.023,-0.068 0.935,-0.219 0.891,-0.281 0.871,-0.437 0.871,-0.682 l 0,-1.793 c 0,-0.431 -0.043,-0.781 -0.123,-1.029 -0.086,-0.238 -0.246,-0.443 -0.494,-0.623 -0.242,-0.172 -0.58,-0.254 -0.994,-0.254 -0.465,0 -0.809,0.076 -1.047,0.244 -0.236,0.166 -0.408,0.395 -0.504,0.678 -0.068,0.186 -0.107,0.553 -0.107,1.082 l 0,1.715 c 0,0.271 -0.026,0.451 -0.092,0.537 C -2.566,-0.037 -2.672,0 -2.836,0 l -0.158,0 0,0.117 1.799,0 0,-0.117 -0.159,0 C -1.527,0 -1.648,-0.055 -1.719,-0.17 -1.77,-0.248 -1.803,-0.41 -1.803,-0.662 l 0,-1.914 c 0,-0.17 0.016,-0.367 0.047,-0.586 0.033,-0.223 0.092,-0.391 0.17,-0.514 0.078,-0.125 0.186,-0.228 0.336,-0.31 0.154,-0.076 0.332,-0.116 0.549,-0.116 0.269,0 0.521,0.063 0.736,0.186 0.219,0.129 0.367,0.287 0.445,0.482 0.082,0.198 0.12,0.53 0.12,0.993 l 0,1.779 c 0,0.277 -0.022,0.451 -0.088,0.519 C 0.435,-0.043 0.312,0 0.156,0 L 0,0 Z" /></g><g
           transform="translate(275.5631,381.3332)"
           id="g36"><path
             id="path38"
             style="fill:none;stroke:#e1a21b;stroke-width:0.5;stroke-linecap:butt;stroke-linejoin:miter;stroke-miterlimit:10;stroke-dasharray:none;stroke-opacity:1"
             d="m 0,0 c 0.082,-0.207 0.123,-0.353 0.123,-0.455 0,-0.07 -0.027,-0.129 -0.088,-0.176 -0.056,-0.053 -0.172,-0.074 -0.332,-0.088 l 0,-0.117 1.656,0 0,0.117 C 1.18,-0.705 1.053,-0.656 0.959,-0.572 0.859,-0.482 0.752,-0.295 0.637,0 l -1.459,3.666 -0.102,0 L -2.42,0.045 C -2.557,-0.281 -2.668,-0.49 -2.775,-0.594 -2.824,-0.65 -2.939,-0.689 -3.119,-0.719 l 0,-0.117 1.324,0 0,0.117 c -0.199,0.014 -0.334,0.047 -0.396,0.098 -0.059,0.049 -0.09,0.109 -0.09,0.176 0,0.092 0.035,0.217 0.105,0.386 l 0.287,0.692 1.637,0 L 0,0 Z m -1.789,0.871 0.736,1.777 0.711,-1.777 -1.447,0 z" /></g><g
           transform="translate(286.862,384.7805)"
           id="g40"><path
             id="path42"
             style="fill:none;stroke:#e1a21b;stroke-width:0.5;stroke-linecap:butt;stroke-linejoin:miter;stroke-miterlimit:10;stroke-dasharray:none;stroke-opacity:1"
             d="m 0,0 c 0.107,0 0.189,-0.01 0.25,-0.037 0.049,-0.029 0.092,-0.065 0.131,-0.113 0.021,-0.045 0.043,-0.108 0.043,-0.159 0,-0.105 -0.065,-0.255 -0.188,-0.462 l -0.83,-1.356 -0.867,1.424 c -0.135,0.199 -0.193,0.338 -0.193,0.422 0,0.092 0.043,0.166 0.123,0.213 C -1.451,-0.02 -1.361,0 -1.264,0 l 0.092,0 0,0.117 -1.791,0 0,-0.117 c 0.078,0 0.129,-0.01 0.174,-0.037 0.154,-0.072 0.254,-0.133 0.312,-0.188 0.041,-0.056 0.139,-0.189 0.27,-0.404 l 1.142,-1.855 0,-1.036 c 0,-0.25 -0.013,-0.408 -0.066,-0.48 -0.07,-0.117 -0.205,-0.166 -0.379,-0.166 l -0.154,0 0,-0.117 1.806,0 0,0.117 -0.14,0 c -0.17,0 -0.295,0.039 -0.375,0.135 -0.059,0.064 -0.092,0.244 -0.092,0.511 l 0,1.11 1.02,1.666 c 0.119,0.207 0.226,0.359 0.316,0.459 0.082,0.094 0.176,0.16 0.273,0.217 C 1.252,-0.02 1.332,0 1.383,0 l 0.084,0 0,0.117 L 0,0.117 0,0 Z" /></g><g
           transform="translate(298.3131,381.3332)"
           id="g44"><path
             id="path46"
             style="fill:none;stroke:#e1a21b;stroke-width:0.5;stroke-linecap:butt;stroke-linejoin:miter;stroke-miterlimit:10;stroke-dasharray:none;stroke-opacity:1"
             d="m 0,0 c 0.082,-0.207 0.123,-0.353 0.123,-0.455 0,-0.07 -0.029,-0.129 -0.09,-0.176 -0.06,-0.053 -0.17,-0.074 -0.338,-0.088 l 0,-0.117 1.653,0 0,0.117 C 1.176,-0.705 1.049,-0.656 0.951,-0.572 0.855,-0.482 0.746,-0.295 0.631,0 l -1.457,3.666 -0.102,0 L -2.43,0.045 C -2.56,-0.281 -2.67,-0.49 -2.777,-0.594 -2.826,-0.65 -2.943,-0.689 -3.117,-0.719 l 0,-0.117 1.318,0 0,0.117 c -0.201,0.014 -0.328,0.047 -0.396,0.098 -0.063,0.049 -0.086,0.109 -0.086,0.176 0,0.092 0.031,0.217 0.103,0.386 l 0.28,0.692 1.646,0 L 0,0 Z m -1.799,0.871 0.746,1.777 0.705,-1.777 -1.451,0 z" /></g><g
           transform="translate(311.0768,381.2727)"
           id="g48"><path
             id="path50"
             style="fill:none;stroke:#e1a21b;stroke-width:0.5;stroke-linecap:butt;stroke-linejoin:miter;stroke-miterlimit:10;stroke-dasharray:none;stroke-opacity:1"
             d="m 0,0 c 0.289,0.406 0.43,0.877 0.43,1.416 0,0.668 -0.2,1.215 -0.602,1.654 -0.4,0.436 -0.875,0.656 -1.418,0.656 -0.588,0 -1.074,-0.22 -1.478,-0.652 C -3.48,2.639 -3.685,2.09 -3.685,1.426 c 0,-0.409 0.076,-0.778 0.214,-1.084 0.137,-0.301 0.336,-0.563 0.578,-0.782 0.182,-0.13 0.416,-0.265 0.715,-0.39 0.207,-0.223 0.465,-0.432 0.75,-0.625 0.289,-0.197 0.6,-0.342 0.92,-0.449 0.323,-0.114 0.629,-0.17 0.91,-0.182 l 0,0.096 c -0.302,0.033 -0.584,0.138 -0.828,0.314 -0.242,0.18 -0.469,0.461 -0.681,0.846 0.459,0.148 0.83,0.422 1.107,0.83 z m -0.969,3.271 c 0.188,-0.129 0.346,-0.328 0.461,-0.609 0.156,-0.357 0.231,-0.799 0.231,-1.32 0,-0.69 -0.141,-1.209 -0.418,-1.563 -0.239,-0.291 -0.545,-0.437 -0.94,-0.437 -0.367,0 -0.675,0.146 -0.9,0.437 -0.293,0.383 -0.442,0.94 -0.442,1.647 0,0.738 0.149,1.273 0.442,1.623 0.221,0.281 0.533,0.422 0.9,0.422 0.252,0 0.471,-0.059 0.666,-0.2 z" /></g><g
           transform="translate(322.2155,384.7805)"
           id="g52"><path
             id="path54"
             style="fill:none;stroke:#e1a21b;stroke-width:0.5;stroke-linecap:butt;stroke-linejoin:miter;stroke-miterlimit:10;stroke-dasharray:none;stroke-opacity:1"
             d="m 0,0 0,0.117 1.473,0 L 1.473,0 1.318,0 C 1.152,0 1.029,-0.068 0.937,-0.219 0.895,-0.281 0.873,-0.437 0.873,-0.682 l 0,-1.793 C 0.873,-2.906 0.83,-3.256 0.75,-3.504 0.66,-3.742 0.5,-3.947 0.258,-4.127 0.01,-4.299 -0.322,-4.381 -0.734,-4.381 c -0.465,0 -0.815,0.076 -1.049,0.244 -0.242,0.166 -0.414,0.395 -0.502,0.678 -0.07,0.186 -0.106,0.553 -0.106,1.082 l 0,1.715 c 0,0.271 -0.035,0.451 -0.103,0.537 C -2.568,-0.037 -2.682,0 -2.84,0 l -0.152,0 0,0.117 1.806,0 0,-0.117 -0.16,0 c -0.177,0 -0.299,-0.055 -0.371,-0.17 -0.055,-0.078 -0.08,-0.24 -0.08,-0.492 l 0,-1.914 c 0,-0.17 0.016,-0.367 0.053,-0.586 0.025,-0.223 0.076,-0.391 0.16,-0.514 0.076,-0.125 0.191,-0.228 0.34,-0.31 0.141,-0.076 0.334,-0.116 0.545,-0.116 0.273,0 0.523,0.063 0.738,0.186 0.219,0.129 0.361,0.287 0.449,0.482 0.076,0.198 0.112,0.53 0.112,0.993 l 0,1.779 c 0,0.277 -0.026,0.451 -0.078,0.519 C 0.435,-0.043 0.312,0 0.158,0 L 0,0 Z" /></g><g
           transform="translate(333.1569,380.6145)"
           id="g56"><path
             id="path58"
             style="fill:none;stroke:#e1a21b;stroke-width:0.5;stroke-linecap:butt;stroke-linejoin:miter;stroke-miterlimit:10;stroke-dasharray:none;stroke-opacity:1"
             d="m 0,0 0,-0.117 -1.805,0 0,0.117 0.149,0 c 0.174,0 0.302,0.049 0.381,0.158 0.05,0.061 0.08,0.238 0.08,0.502 l 0,2.844 c 0,0.228 -0.018,0.377 -0.049,0.443 -0.018,0.055 -0.059,0.104 -0.125,0.143 -0.094,0.056 -0.186,0.076 -0.287,0.076 l -0.149,0 0,0.117 1.805,0 0,-0.117 -0.147,0 c -0.179,0 -0.304,-0.051 -0.38,-0.158 C -0.576,3.941 -0.604,3.771 -0.604,3.504 l 0,-2.844 c 0,-0.226 0.014,-0.373 0.039,-0.441 C -0.545,0.162 -0.5,0.115 -0.432,0.074 -0.346,0.021 -0.25,0 -0.147,0 L 0,0 Z" /></g><g
           transform="translate(344.3874,381.718)"
           id="g60"><path
             id="path62"
             style="fill:none;stroke:#e1a21b;stroke-width:0.5;stroke-linecap:butt;stroke-linejoin:miter;stroke-miterlimit:10;stroke-dasharray:none;stroke-opacity:1"
             d="m 0,0 0.102,-0.033 -0.362,-1.188 -3.254,0 0,0.118 0.155,0 c 0.181,0 0.304,0.062 0.38,0.177 0.043,0.073 0.071,0.227 0.071,0.483 l 0,2.843 c 0,0.278 -0.033,0.452 -0.092,0.52 -0.08,0.1 -0.195,0.143 -0.359,0.143 l -0.155,0 0,0.117 1.891,0 0,-0.117 C -1.844,3.063 -1.998,3.047 -2.082,2.998 -2.172,2.953 -2.238,2.898 -2.268,2.826 -2.301,2.76 -2.316,2.598 -2.316,2.338 l 0,-2.779 c 0,-0.172 0.015,-0.297 0.048,-0.368 0.028,-0.044 0.065,-0.076 0.121,-0.105 0.049,-0.02 0.211,-0.027 0.483,-0.027 l 0.306,0 c 0.323,0 0.553,0.017 0.676,0.074 0.133,0.051 0.254,0.142 0.358,0.262 C -0.213,-0.482 -0.108,-0.283 0,0 Z" /></g><g
           transform="translate(212.319,394.6731)"
           id="g64"><path
             id="path66"
             style="fill:none;stroke:#e1a21b;stroke-width:0.5;stroke-linecap:butt;stroke-linejoin:miter;stroke-miterlimit:10;stroke-dasharray:none;stroke-opacity:1"
             d="m 0,0 c -0.383,-4.988 -4.605,-5.32 -4.605,-5.32 2.435,1.392 2.589,4.383 2.589,4.383 0.305,4.753 -2.509,6.865 -2.509,6.865 C 0.135,4.779 0,0 0,0 Z m -5.842,-5.414 c 0,0 -2.004,-0.578 -3.865,0.611 0,0 -0.846,0.42 -0.695,3.369 l 0.041,7.838 4.049,0 c 0,0 2.621,-0.535 3.537,-4.174 0,0 1.673,-6.072 -3.067,-7.644 z m -8.951,0.248 c 0,0 1.457,0.605 1.299,2.621 l 0,16.631 0,1.639 -1.17,1.23 4.391,0.014 -1.493,-1.36 0,-18.675 c 0,0 -0.039,-1.42 1.338,-2.1 l -4.365,0 z m 9.09,20.775 c 0,0 1.605,-1.767 1.064,-5.67 -0.576,-4.211 -5.744,-2.927 -5.744,-2.927 l 0.037,8.554 c 0,0 1.498,3.293 4.643,0.043 z m 2.012,0.194 c 3.089,-3.53 1.003,-6.658 1.003,-6.658 -1.939,-2.944 -3.664,-2.249 -3.664,-2.249 2.442,1.022 2.348,4.143 2.348,4.143 0.244,4.865 -2.885,6.045 -2.885,6.045 1.717,0.357 3.198,-1.281 3.198,-1.281 z M -4.178,6.748 c 4.504,1.4 3.131,6.527 3.131,6.527 -1.875,4.436 -5.349,4.352 -5.349,4.352 l -9.85,0 0.076,-0.514 c 0.996,0.125 1.227,-0.32 1.227,-0.32 l 1.029,-1.283 0,-17.729 c 0.342,-2.082 -1.49,-2.843 -1.49,-2.843 l -0.766,-0.155 0,-0.758 10.731,0 C 0.398,-6.018 0.932,-1.336 0.932,-1.336 1.82,1.346 0.518,3.426 0.518,3.426 -1.121,6.307 -4.178,6.748 -4.178,6.748 Z" /></g><g
           transform="translate(395.9479,393.2981)"
           id="g68"><path
             id="path70"
             style="fill:none;stroke:#e1a21b;stroke-width:0.5;stroke-linecap:butt;stroke-linejoin:miter;stroke-miterlimit:10;stroke-dasharray:none;stroke-opacity:1"
             d="m 0,0 c -0.293,-3.842 -3.541,-4.092 -3.541,-4.092 1.877,1.069 1.988,3.367 1.988,3.367 0.239,3.663 -1.924,5.284 -1.924,5.284 C 0.107,3.684 0,0 0,0 Z m -4.492,-4.172 c 0,0 -1.547,-0.432 -2.973,0.479 0,0 -0.652,0.314 -0.537,2.584 l 0.027,6.033 3.118,0 c 0,0 2.019,-0.412 2.724,-3.207 0,0 1.291,-4.682 -2.359,-5.889 z m -6.891,0.195 c 0,0 1.125,0.469 1.008,2.012 l 0,12.799 0,1.268 -0.902,0.949 3.375,0.017 -1.145,-1.056 0,-14.383 c 0,0 -0.037,-1.078 1.027,-1.606 l -3.363,0 z m 6.996,15.989 c 0,0 1.229,-1.366 0.823,-4.364 -0.448,-3.24 -4.42,-2.256 -4.42,-2.256 l 0.035,6.583 c 0,0 1.14,2.537 3.562,0.037 z m 1.549,0.146 c 2.379,-2.72 0.77,-5.131 0.77,-5.131 C -3.56,4.77 -4.887,5.305 -4.887,5.305 c 1.879,0.787 1.807,3.193 1.807,3.193 0.193,3.74 -2.217,4.643 -2.217,4.643 1.317,0.285 2.459,-0.983 2.459,-0.983 z m 3.24,-9.521 c -1.263,2.215 -3.617,2.554 -3.617,2.554 3.471,1.086 2.41,5.02 2.41,5.02 -1.439,3.416 -4.113,3.349 -4.113,3.349 l -7.582,0 0.066,-0.396 c 0.764,0.096 0.932,-0.246 0.932,-0.246 l 0.799,-0.984 0,-13.639 c 0.262,-1.6 -1.15,-2.188 -1.15,-2.188 l -0.581,-0.123 0,-0.584 8.252,0 c 4.491,-0.031 4.909,3.577 4.909,3.577 0.679,2.06 -0.325,3.66 -0.325,3.66 z" /></g><g
           transform="translate(379.526,406.4231)"
           id="g72"><path
             id="path74"
             style="fill:none;stroke:#e1a21b;stroke-width:0.5;stroke-linecap:butt;stroke-linejoin:miter;stroke-miterlimit:10;stroke-dasharray:none;stroke-opacity:1"
             d="M 0,0 C -0.209,-0.361 -0.775,-2.438 -0.775,-2.438 -1.16,-0.945 -2.539,-0.09 -2.539,-0.09 L 0,0 Z m -12.557,-11.572 0,10.515 -0.839,1.139 3.13,0 -1.004,-1.049 0,-10.545 c 0,0 -0.08,-2.73 3.581,-5.744 0,0 -3.946,0.039 -4.868,5.684 z m 8.053,11.74 c 0,0 2.627,0.09 3.641,-3.281 l -0.069,-8.692 c 0,0 -0.806,-4.916 -4.824,-5.066 0,0 -3.996,0.238 -4.338,4.334 l -0.021,11.125 c 0,0 0.162,1.554 1.947,1.494 l 0.199,0 0,0.324 -6.871,0 0,-0.291 c 0,0 1.479,0.195 1.948,-1.547 0,0 -0.219,-9.791 0.091,-10.73 0,0 0.639,-6.145 6.895,-5.531 0,0 4.197,0.209 5.285,5.505 l 0.16,8.813 c 0,0 0.461,2.902 2.494,3.371 l 0.225,0.119 0.029,0.315 -6.791,0 0,-0.262 z" /></g><g
           transform="translate(297.7799,394.2863)"
           id="g76"><path
             id="path78"
             style="fill:none;stroke:#e1a21b;stroke-width:0.5;stroke-linecap:butt;stroke-linejoin:miter;stroke-miterlimit:10;stroke-dasharray:none;stroke-opacity:1"
             d="m 0,0 c 0,0 -1.041,3.199 -1.48,3.301 0,0 1.134,-0.049 3.109,-4.385 0,0 1.072,-3.51 3.09,-4.387 0,0 -2.451,-0.466 -4.719,5.471 z m -4.391,4.332 0,6.608 c 0.692,2.224 3.551,0.99 3.551,0.99 C 2.943,9.604 0.291,5.109 0.291,5.109 -0.252,3.869 -4.391,4.332 -4.391,4.332 Z m 7.25,4.604 C 3.344,4.547 0.44,4.592 0.44,4.592 3.443,8.773 0.102,11.877 0.102,11.877 2.658,11.15 2.859,8.936 2.859,8.936 Z M -7.935,-5.109 -7,-3.871 l 0.299,15.021 -0.936,1.03 3.006,0 -1.08,-1.03 0,-14.605 1.129,-1.654 -3.353,0 z M 4.44,-4.51 c 0,0 -1.045,1.319 -1.76,3.571 0,0 -1.487,4.058 -3.979,4.658 0,0 5.422,-0.338 5.422,3.5 0,0 0.568,5.181 -5.955,5.474 l -7.244,0 0,-0.525 c 0,0 1.82,0.104 1.695,-1.978 l 0,-12.817 c 0,0 0.483,-1.584 -1.695,-2.385 l 0,-0.355 6.646,0 0,0.392 c 0,0 -2.113,-0.425 -2.146,2.743 l 0.033,6.105 c 0,0 2.424,0.668 3.023,-1.574 0,0 2.395,-10.277 8.161,-7.867 l 0,0.168 c 0,0 -1.446,-0.303 -2.201,0.89 z" /></g><g
           transform="translate(314.1803,390.2063)"
           id="g80"><path
             id="path82"
             style="fill:none;stroke:#e1a21b;stroke-width:0.5;stroke-linecap:butt;stroke-linejoin:miter;stroke-miterlimit:10;stroke-dasharray:none;stroke-opacity:1"
             d="m 0,0 c 0,0 2.873,4.555 -1.537,6.693 0,0 -5.082,1.577 -5.516,3.995 0,0 -1.156,3.097 1.766,5.113 0,0 -3.895,-4.93 2.33,-6.76 0,0 8.078,-1.883 2.957,-9.041 z m -7.623,-0.336 0,2.068 c 0.447,-1.33 2.871,-2.781 2.871,-2.781 -1.48,0.029 -2.871,0.713 -2.871,0.713 z m 6.408,16.783 1.578,0 0.379,-2.322 c 0,0 -0.742,1.984 -2.006,2.322 l 0.049,0 z M -1.736,9.73 c -3.369,0.686 -3.881,3.096 -3.881,3.096 -0.697,3.283 2.57,3.691 2.57,3.691 2.963,0.147 4.408,-4.747 4.408,-4.747 l 0.418,0 -0.531,5.082 C 0.232,16.629 -1.147,16.824 -1.147,16.824 -3.57,17.105 -4.402,16.666 -4.402,16.666 -9.426,14.65 -7.264,10.002 -7.264,10.002 -5.904,7.65 -2.242,6.537 -2.242,6.537 2.047,5.238 0.232,1.34 0.232,1.34 -2.064,-2.91 -4.9,-0.336 -4.9,-0.336 -6.975,0.904 -7.893,4.986 -7.893,4.986 l -0.406,0 0.385,-5.724 c 1.977,-1.061 4.91,-0.75 4.91,-0.75 7.229,1.394 5.197,7.466 5.197,7.466 C 1.805,8.672 -1.736,9.73 -1.736,9.73 Z" /></g><g
           transform="translate(250.3542,406.4758)"
           id="g84"><path
             id="path86"
             style="fill:none;stroke:#e1a21b;stroke-width:0.5;stroke-linecap:butt;stroke-linejoin:miter;stroke-miterlimit:10;stroke-dasharray:none;stroke-opacity:1"
             d="m 0,0 c 0,0 0.533,-0.195 -0.637,-2.242 0,0 -1.263,1.998 -1.707,2.242 L 0,0 Z m -0.682,-17.289 -14.015,17.248 1.853,0 12.162,-15.461 0,-1.787 z m -12.312,0.156 -1.994,0 c 0.675,0.262 1.359,1.943 1.359,1.943 l 0.635,-1.943 z m 8.986,17.244 c 0,0 2.004,0 3.221,-3.324 l 0,-10.08 -10.787,13.656 -4.69,-0.045 0.102,-0.412 c 0,0 1.465,0.094 2.392,-1.846 l 0,-11.966 c 0,0 -0.787,-3.332 -2.541,-3.332 l 0,-0.299 6.204,0 0,0.35 c 0,0 -2.887,-0.614 -3.227,4.046 l 0,10.899 12.451,-15.608 c 0,0 0.694,-0.511 0.545,0.717 l 0,13.863 c 0,0 0.477,3.026 2.533,3.27 l 0,0.363 -6.203,0 0,-0.252 z" /></g><g
           transform="translate(226.6764,389.343)"
           id="g88"><path
             id="path90"
             style="fill:none;stroke:#e1a21b;stroke-width:0.5;stroke-linecap:butt;stroke-linejoin:miter;stroke-miterlimit:10;stroke-dasharray:none;stroke-opacity:1"
             d="m 0,0 c 1.801,1.223 0.775,3.635 0.775,3.635 l -4.101,10.74 0.681,1.539 L 1.9,3.992 C 2.734,1.072 4.195,0 4.195,0 L 0,0 Z m -6.252,6.447 c -0.395,0.053 0.143,0.819 0.143,0.819 l 5.08,-0.045 0.097,-0.774 -5.32,0 z m 2.732,7.162 2.192,-5.884 -4.535,-0.053 2.343,5.937 z M -10.061,-0.156 -8.404,2.1 -8.354,0 -10.061,-0.156 Z M 3.053,3.908 -2.207,17.949 -8.047,3.604 c -1.107,-2.672 -3.211,-3.79 -3.211,-3.79 l -0.203,-0.214 5.43,0 0,0.306 C -8.215,-0.227 -7.916,2.568 -7.916,2.568 L -6.57,6.059 -0.773,6.102 -0.359,5.33 C 2.223,1.156 -0.686,-0.01 -0.686,-0.01 l -0.779,-0.127 0,-0.345 7.69,0 0,0.388 C 4.576,-0.525 3.053,3.908 3.053,3.908 Z" /></g><g
           transform="translate(326.1608,397.927)"
           id="g92"><path
             id="path94"
             style="fill:none;stroke:#e1a21b;stroke-width:0.5;stroke-linecap:butt;stroke-linejoin:miter;stroke-miterlimit:10;stroke-dasharray:none;stroke-opacity:1"
             d="m 0,0 c 0,0 -1.582,7.98 4.908,12.834 0,0 -4.289,-4.084 -3.357,-12.352 0,0 0.763,-6.519 6.025,-8.988 0,0 -5.562,0.686 -7.576,8.506 z m 16.006,13.609 0.992,-3.652 c -0.682,1.867 -4.049,3.685 -4.049,3.685 l 3.057,-0.033 z M 10.324,-8.674 C 1.006,-8.029 3.057,6.477 3.057,6.477 3.478,14.531 8.66,14.045 8.66,14.045 15.42,14.008 18.4,6.84 18.4,6.84 l 0.305,0.332 c -1.082,2.59 -1.127,7.566 -1.127,7.566 -2.543,-1.013 -4.506,-0.603 -4.506,-0.603 -3.875,0.847 -5.691,0.234 -5.691,0.234 -9.69,-3.191 -7.922,-13.723 -7.922,-13.723 0.848,-8.263 8.076,-9.72 8.076,-9.72 8.153,-1.821 11.473,6.078 11.473,6.078 l -0.53,0.199 c -3.332,-6.07 -8.154,-5.877 -8.154,-5.877 z" /></g><g
           transform="translate(360.3307,389.3117)"
           id="g96"><path
             id="path98"
             style="fill:none;stroke:#e1a21b;stroke-width:0.5;stroke-linecap:butt;stroke-linejoin:miter;stroke-miterlimit:10;stroke-dasharray:none;stroke-opacity:1"
             d="M 0,0 -3.779,0 C -1.91,0.231 0.812,2.869 0.812,2.869 L 0,0 Z m -11.248,0.018 0.961,1.265 0.099,14.977 -0.835,0.912 3.078,0 -0.971,-1.02 0,-15.035 1.045,-1.099 -3.377,0 z m 5.385,-0.077 c 0,0 -1.815,-0.154 -1.912,1.618 l 0,14.14 c 0,0 -0.112,1.559 2.279,1.451 l -0.053,0.272 -6.793,0 c 0,0 1.115,-0.272 1.428,-1 l 0.213,-14.967 c 0,0 -0.213,-1.064 -1.803,-1.514 l 0,-0.375 13.75,0 L 2.523,5.125 2.1,5.061 c 0,0 -3.83,-5.12 -7.963,-5.12 z" /></g><g
           transform="translate(263.5885,389.3215)"
           id="g100"><path
             id="path102"
             style="fill:none;stroke:#e1a21b;stroke-width:0.5;stroke-linecap:butt;stroke-linejoin:miter;stroke-miterlimit:10;stroke-dasharray:none;stroke-opacity:1"
             d="m 0,0 c 1.492,0.994 0.264,2.387 0.264,2.387 l -4.781,7.07 1.013,0.836 C 3.029,-0.068 3.936,0 3.936,0 L 0,0 Z m -4.672,0 -3.564,0 0.908,1.111 0.168,14.356 0.252,0.617 -0.899,0.998 2.873,0 L -5.891,16.025 -5.836,1.168 -4.672,0 Z m 6.795,17.141 c 0,0 -0.418,-1.452 -1.328,-1.784 0,0 0.271,1.17 -0.266,1.838 L 2.123,17.141 Z M 3.768,1.666 -2.654,11.074 0.529,14.41 c 1.495,1.725 4.623,2.897 4.623,2.897 l 0,0.222 -6.476,0 0,-0.281 0.26,0 C 1.336,16.922 0,14.689 0,14.689 l -4.77,-4.681 0,5.799 c 0.84,1.722 1.848,1.441 1.848,1.441 l 0,0.281 -6.527,0 0,-0.281 c 1.543,0.059 1.91,-1.723 1.91,-1.723 L -7.488,2.051 C -7.59,0.492 -9.4,0 -9.4,0 l 0,-0.504 6.533,0 0,0.393 C -4.621,0 -4.832,1.605 -4.832,1.605 l 0,7.461 4.672,-6.781 C 0.795,0.273 -0.9,0 -0.9,0 l -0.717,-0.254 0.293,-0.311 7.596,0 0,0.401 C 4.777,0 3.768,1.666 3.768,1.666 Z" /></g><g
           transform="translate(284.7272,389.6067)"
           id="g104"><path
             id="path106"
             style="fill:none;stroke:#e1a21b;stroke-width:0.5;stroke-linecap:butt;stroke-linejoin:miter;stroke-miterlimit:10;stroke-dasharray:none;stroke-opacity:1"
             d="m 0,0 -3.471,0 c 2.383,0.908 4.182,3.029 4.182,3.029 L 0,0 Z m -11.998,-0.285 c 0,0 1.174,0.285 1.217,2.133 l 0,13.802 -1.016,1.268 3.6,0 -1.238,-1.289 0,-14.272 c 0,0 -0.135,-0.941 1.238,-1.642 l -3.801,0 z m 10.98,17.203 0.639,-2.738 c 0,0 -1.531,2.087 -3.453,2.738 l 2.814,0 z m -2.73,-6.975 -0.045,-1.904 -1.385,0.973 1.43,0.931 z M -6.68,-0.324 c 0,0 -2.152,0.324 -1.761,3.195 l 0,5.608 2.55,0 c 0,0 2.731,0.408 3.006,-3.932 l 0.27,0 0,8.152 -0.27,0 c 0,0 -0.377,-3.72 -3.592,-3.72 l -1.964,0 0,6.505 c 0,0 0.433,2.625 4.853,0.823 0,0 2.846,-1.231 3.399,-3.645 l 0.47,0 -0.244,4.627 -12.81,0 0.035,-0.252 1.017,-0.523 0.547,-1.11 0,-13.802 c 0,0 -0.043,-1.35 -2.035,-1.926 l 0,-0.405 13.797,0 1.211,5.682 -0.309,0.049 c 0,0 -2.812,-4.51 -8.17,-5.326 z" /></g><g
           transform="translate(300.2897,422.8918)"
           id="g108"><path
             id="path110"
             style="fill:none;stroke:#e1a21b;stroke-width:0.5;stroke-linecap:butt;stroke-linejoin:miter;stroke-miterlimit:10;stroke-dasharray:none;stroke-opacity:1"
             d="m 0,0 c 0,0 4.545,2.219 4.363,9.518 0,0 -0.478,6.416 -4.24,9.083 0,0 7.692,-1.586 7.627,-9.65 0,0 0,-7.685 -7.75,-8.951 z M -1.084,0.213 C -3.59,-0.521 -6.461,0.1 -6.461,0.1 -9.84,0.815 -9.328,4.57 -9.328,4.57 l 0.058,5.123 c 0.739,-1.55 3.5,-4.099 3.5,-4.099 C -2.633,2.652 1.93,2.838 1.93,2.838 0.67,0.701 -1.084,0.213 -1.084,0.213 Z m -15.543,0.146 1.842,1.94 c 0,0 0.344,0.264 0.433,1.174 l 0.252,28.624 c 0,0 -0.171,0.814 0.61,1.084 l 0.084,0.718 -2.324,2.528 6.98,-0.18 -2.418,-1.986 -0.428,-30.611 c 0,0 -0.345,-1.263 2.291,-3.291 l -7.322,0 z M -5.264,36.38 c 0,0 3.09,-0.648 4.092,-3.16 0,0 -4.48,-0.975 -7.963,-6.405 l 0.076,6.729 c 0,0 1.084,3 3.795,2.836 z M -6.842,19.239 c 6.235,0.883 8.264,-2.86 8.264,-2.86 C 6.33,9.014 2.424,3.551 2.424,3.551 -7.992,4.945 -6.842,19.239 -6.842,19.239 Z M -0.74,32.71 c 0,0 3.851,-7.883 -1.703,-12.088 0,0 -2,-1.07 -4.389,-0.596 0,0 -0.498,10.809 6.092,12.684 z M -8.645,17.917 C -7.617,6.199 -0.695,3.76 -0.695,3.76 -11.23,7.426 -10.85,17.306 -10.85,17.306 -10.975,28.22 -3.736,31.464 -3.736,31.464 -8.318,27.269 -8.645,17.917 -8.645,17.917 Z M 4.6,27.218 c 0,0 -0.172,-7.676 -7.233,-7.315 0,0 4.653,1.715 3.785,8.489 0,0 0.088,5.06 -4.564,7.949 0,0 7.668,0.086 8.012,-9.123 z m 5.943,4.967 1.297,-4.694 c -0.953,2.348 -5.428,4.875 -5.428,4.875 l 4.131,-0.181 z M 9.08,5.996 c 2.926,11.741 -8.271,13.632 -8.271,13.632 9.392,3.389 4.134,12.516 4.134,12.516 6.247,-2.62 8.579,-8.629 8.579,-8.629 l 0.509,0.181 c -1.976,6.233 -1.424,9.895 -1.424,9.895 -4.515,-1.668 -8.49,-0.283 -8.49,-0.283 -3.203,3.67 -6.164,3.627 -6.164,3.627 l -16.648,0.185 0,-0.637 1.666,-0.142 c 0.609,0 2.244,-2.621 2.244,-2.621 L -15.129,3.65 C -15.73,0.941 -19.096,0.312 -19.096,0.312 l 0.092,-0.544 16.879,-0.45 c 8.619,-0.896 10.684,5.418 10.684,5.418 3.711,1.901 5.685,6.317 5.685,6.317 l -0.517,0.275 C 11.494,7.262 9.08,5.996 9.08,5.996 Z" /></g><g
           transform="translate(318.3366,459.2619)"
           id="g112"><path
             id="path114"
             style="fill:none;stroke:#e1a21b;stroke-width:0.5;stroke-linecap:butt;stroke-linejoin:miter;stroke-miterlimit:10;stroke-dasharray:none;stroke-opacity:1"
             d="m 0,0 c -1.85,0.756 -3.252,2.506 -3.674,4.664 -0.084,0.387 -0.133,0.789 -0.14,1.197 l -1.42,0 -31.819,0 -1.445,0 C -38.555,5.447 -38.631,5.047 -38.746,4.664 -39.373,2.537 -40.982,0.9 -42.973,0.371 -43.338,0.283 -43.723,0.23 -44.119,0.221 l 0,-1.512 0,-32.64 0,-1.539 c 0.398,-0.054 0.785,-0.15 1.146,-0.291 1.774,-0.662 3.166,-2.228 3.725,-4.211 0.1,-0.381 0.174,-0.783 0.215,-1.191 l 1.447,0 31.856,0 1.466,0 c 0.069,0.408 0.176,0.814 0.311,1.191 0.682,1.895 2.139,3.354 3.953,3.887 0.359,0.105 0.746,0.17 1.139,0.199 l 0,1.512 0,32.505 0,1.545 C 0.744,-0.256 0.359,-0.145 0,0 Z m 0,-34.501 c -2.645,-0.514 -4.771,-2.664 -5.51,-5.471 l -32.234,0 c -0.588,2.885 -2.629,5.162 -5.229,5.844 l 0,32.927 c 2.828,0.484 5.096,2.826 5.75,5.865 l 32.063,0 C -4.732,1.6 -2.68,-0.875 0,-1.645 l 0,-32.856 z" /></g><path
           id="path116"
           style="fill:#e1a21b;fill-opacity:1;fill-rule:nonzero;stroke:none"
           d="m 252.2526,384.9992 0.107,-1.387 -0.113,0 c -0.101,0.342 -0.252,0.604 -0.422,0.778 -0.246,0.252 -0.564,0.381 -0.959,0.381 -0.531,0 -0.945,-0.227 -1.213,-0.668 -0.234,-0.373 -0.345,-0.821 -0.345,-1.327 0,-0.418 0.068,-0.81 0.23,-1.15 0.152,-0.35 0.356,-0.6 0.604,-0.762 0.256,-0.156 0.519,-0.236 0.779,-0.236 0.162,0 0.303,0.016 0.447,0.061 0.145,0.041 0.283,0.103 0.416,0.187 l 0,1.26 c 0,0.224 -0.01,0.371 -0.047,0.441 -0.029,0.063 -0.08,0.113 -0.148,0.149 -0.065,0.035 -0.182,0.052 -0.359,0.052 l 0,0.123 1.625,0 0,-0.123 -0.079,0 c -0.158,0 -0.271,-0.052 -0.334,-0.164 -0.041,-0.082 -0.06,-0.244 -0.06,-0.478 l 0,-1.352 c -0.234,-0.135 -0.471,-0.228 -0.695,-0.287 -0.237,-0.07 -0.491,-0.098 -0.772,-0.098 -0.81,0 -1.426,0.264 -1.848,0.815 -0.314,0.404 -0.472,0.881 -0.472,1.414 0,0.391 0.094,0.76 0.263,1.115 0.209,0.424 0.502,0.742 0.866,0.973 0.306,0.185 0.674,0.283 1.092,0.283 0.152,0 0.292,-0.014 0.414,-0.037 0.127,-0.027 0.306,-0.09 0.537,-0.182 0.107,-0.037 0.185,-0.064 0.226,-0.064 0.043,0 0.069,0.021 0.1,0.055 0.029,0.039 0.049,0.123 0.053,0.228 l 0.107,0 z" /><path
           id="path118"
           style="fill:#e1a21b;fill-opacity:1;fill-rule:nonzero;stroke:none"
           d="m 263.4167,384.7805 0,0.117 1.477,0 0,-0.117 -0.161,0 c -0.162,0 -0.293,-0.068 -0.381,-0.219 -0.044,-0.062 -0.064,-0.218 -0.064,-0.463 l 0,-1.793 c 0,-0.431 -0.043,-0.781 -0.123,-1.029 -0.086,-0.238 -0.246,-0.443 -0.494,-0.623 -0.242,-0.172 -0.58,-0.254 -0.994,-0.254 -0.465,0 -0.809,0.076 -1.047,0.244 -0.236,0.166 -0.408,0.395 -0.504,0.678 -0.068,0.186 -0.107,0.553 -0.107,1.082 l 0,1.715 c 0,0.271 -0.026,0.451 -0.092,0.537 -0.076,0.088 -0.182,0.125 -0.346,0.125 l -0.158,0 0,0.117 1.799,0 0,-0.117 -0.159,0 c -0.173,0 -0.294,-0.055 -0.365,-0.17 -0.051,-0.078 -0.084,-0.24 -0.084,-0.492 l 0,-1.914 c 0,-0.17 0.016,-0.367 0.047,-0.586 0.033,-0.223 0.092,-0.391 0.17,-0.514 0.078,-0.125 0.186,-0.228 0.336,-0.31 0.154,-0.076 0.332,-0.116 0.549,-0.116 0.269,0 0.521,0.063 0.736,0.186 0.219,0.129 0.367,0.287 0.445,0.482 0.082,0.198 0.12,0.53 0.12,0.993 l 0,1.779 c 0,0.277 -0.022,0.451 -0.088,0.519 -0.077,0.1 -0.2,0.143 -0.356,0.143 l -0.156,0 z" /><path
           id="path120"
           style="fill:#e1a21b;fill-opacity:1;fill-rule:nonzero;stroke:none"
           d="m 275.5631,381.3332 c 0.082,-0.207 0.123,-0.353 0.123,-0.455 0,-0.07 -0.027,-0.129 -0.088,-0.176 -0.056,-0.053 -0.172,-0.074 -0.332,-0.088 l 0,-0.117 1.656,0 0,0.117 c -0.179,0.014 -0.306,0.063 -0.4,0.147 -0.1,0.09 -0.207,0.277 -0.322,0.572 l -1.459,3.666 -0.102,0 -1.496,-3.621 c -0.137,-0.326 -0.248,-0.535 -0.355,-0.639 -0.049,-0.056 -0.164,-0.095 -0.344,-0.125 l 0,-0.117 1.324,0 0,0.117 c -0.199,0.014 -0.334,0.047 -0.396,0.098 -0.059,0.049 -0.09,0.109 -0.09,0.176 0,0.092 0.035,0.217 0.105,0.386 l 0.287,0.692 1.637,0 0.252,-0.633 z m -1.789,0.871 0.736,1.777 0.711,-1.777 -1.447,0 z" /><path
           id="path122"
           style="fill:#e1a21b;fill-opacity:1;fill-rule:nonzero;stroke:none"
           d="m 286.862,384.7805 c 0.107,0 0.189,-0.01 0.25,-0.037 0.049,-0.029 0.092,-0.065 0.131,-0.113 0.021,-0.045 0.043,-0.108 0.043,-0.159 0,-0.105 -0.065,-0.255 -0.188,-0.462 l -0.83,-1.356 -0.867,1.424 c -0.135,0.199 -0.193,0.338 -0.193,0.422 0,0.092 0.043,0.166 0.123,0.213 0.08,0.048 0.17,0.068 0.267,0.068 l 0.092,0 0,0.117 -1.791,0 0,-0.117 c 0.078,0 0.129,-0.01 0.174,-0.037 0.154,-0.072 0.254,-0.133 0.312,-0.188 0.041,-0.056 0.139,-0.189 0.27,-0.404 l 1.142,-1.855 0,-1.036 c 0,-0.25 -0.013,-0.408 -0.066,-0.48 -0.07,-0.117 -0.205,-0.166 -0.379,-0.166 l -0.154,0 0,-0.117 1.806,0 0,0.117 -0.14,0 c -0.17,0 -0.295,0.039 -0.375,0.135 -0.059,0.064 -0.092,0.244 -0.092,0.511 l 0,1.11 1.02,1.666 c 0.119,0.207 0.226,0.359 0.316,0.459 0.082,0.094 0.176,0.16 0.273,0.217 0.108,0.048 0.188,0.068 0.239,0.068 l 0.084,0 0,0.117 -1.467,0 0,-0.117 z" /><path
           id="path124"
           style="fill:#e1a21b;fill-opacity:1;fill-rule:nonzero;stroke:none"
           d="m 298.3131,381.3332 c 0.082,-0.207 0.123,-0.353 0.123,-0.455 0,-0.07 -0.029,-0.129 -0.09,-0.176 -0.06,-0.053 -0.17,-0.074 -0.338,-0.088 l 0,-0.117 1.653,0 0,0.117 c -0.172,0.014 -0.299,0.063 -0.397,0.147 -0.096,0.09 -0.205,0.277 -0.32,0.572 l -1.457,3.666 -0.102,0 -1.502,-3.621 c -0.13,-0.326 -0.24,-0.535 -0.347,-0.639 -0.049,-0.056 -0.166,-0.095 -0.34,-0.125 l 0,-0.117 1.318,0 0,0.117 c -0.201,0.014 -0.328,0.047 -0.396,0.098 -0.063,0.049 -0.086,0.109 -0.086,0.176 0,0.092 0.031,0.217 0.103,0.386 l 0.28,0.692 1.646,0 0.252,-0.633 z m -1.799,0.871 0.746,1.777 0.705,-1.777 -1.451,0 z" /><path
           id="path126"
           style="fill:#e1a21b;fill-opacity:1;fill-rule:nonzero;stroke:none"
           d="m 311.0768,381.2727 c 0.289,0.406 0.43,0.877 0.43,1.416 0,0.668 -0.2,1.215 -0.602,1.654 -0.4,0.436 -0.875,0.656 -1.418,0.656 -0.588,0 -1.074,-0.22 -1.478,-0.652 -0.412,-0.435 -0.617,-0.984 -0.617,-1.648 0,-0.409 0.076,-0.778 0.214,-1.084 0.137,-0.301 0.336,-0.563 0.578,-0.782 0.182,-0.13 0.416,-0.265 0.715,-0.39 0.207,-0.223 0.465,-0.432 0.75,-0.625 0.289,-0.197 0.6,-0.342 0.92,-0.449 0.323,-0.114 0.629,-0.17 0.91,-0.182 l 0,0.096 c -0.302,0.033 -0.584,0.138 -0.828,0.314 -0.242,0.18 -0.469,0.461 -0.681,0.846 0.459,0.148 0.83,0.422 1.107,0.83 m -0.969,3.271 c 0.188,-0.129 0.346,-0.328 0.461,-0.609 0.156,-0.357 0.231,-0.799 0.231,-1.32 0,-0.69 -0.141,-1.209 -0.418,-1.563 -0.239,-0.291 -0.545,-0.437 -0.94,-0.437 -0.367,0 -0.675,0.146 -0.9,0.437 -0.293,0.383 -0.442,0.94 -0.442,1.647 0,0.738 0.149,1.273 0.442,1.623 0.221,0.281 0.533,0.422 0.9,0.422 0.252,0 0.471,-0.059 0.666,-0.2" /><path
           id="path128"
           style="fill:#e1a21b;fill-opacity:1;fill-rule:nonzero;stroke:none"
           d="m 322.2155,384.7805 0,0.117 1.473,0 0,-0.117 -0.155,0 c -0.166,0 -0.289,-0.068 -0.381,-0.219 -0.042,-0.062 -0.064,-0.218 -0.064,-0.463 l 0,-1.793 c 0,-0.431 -0.043,-0.781 -0.123,-1.029 -0.09,-0.238 -0.25,-0.443 -0.492,-0.623 -0.248,-0.172 -0.58,-0.254 -0.992,-0.254 -0.465,0 -0.815,0.076 -1.049,0.244 -0.242,0.166 -0.414,0.395 -0.502,0.678 -0.07,0.186 -0.106,0.553 -0.106,1.082 l 0,1.715 c 0,0.271 -0.035,0.451 -0.103,0.537 -0.074,0.088 -0.188,0.125 -0.346,0.125 l -0.152,0 0,0.117 1.806,0 0,-0.117 -0.16,0 c -0.177,0 -0.299,-0.055 -0.371,-0.17 -0.055,-0.078 -0.08,-0.24 -0.08,-0.492 l 0,-1.914 c 0,-0.17 0.016,-0.367 0.053,-0.586 0.025,-0.223 0.076,-0.391 0.16,-0.514 0.076,-0.125 0.191,-0.228 0.34,-0.31 0.141,-0.076 0.334,-0.116 0.545,-0.116 0.273,0 0.523,0.063 0.738,0.186 0.219,0.129 0.361,0.287 0.449,0.482 0.076,0.198 0.112,0.53 0.112,0.993 l 0,1.779 c 0,0.277 -0.026,0.451 -0.078,0.519 -0.087,0.1 -0.21,0.143 -0.364,0.143 l -0.158,0 z" /><path
           id="path130"
           style="fill:#e1a21b;fill-opacity:1;fill-rule:nonzero;stroke:none"
           d="m 333.1569,380.6145 0,-0.117 -1.805,0 0,0.117 0.149,0 c 0.174,0 0.302,0.049 0.381,0.158 0.05,0.061 0.08,0.238 0.08,0.502 l 0,2.844 c 0,0.228 -0.018,0.377 -0.049,0.443 -0.018,0.055 -0.059,0.104 -0.125,0.143 -0.094,0.056 -0.186,0.076 -0.287,0.076 l -0.149,0 0,0.117 1.805,0 0,-0.117 -0.147,0 c -0.179,0 -0.304,-0.051 -0.38,-0.158 -0.049,-0.067 -0.077,-0.237 -0.077,-0.504 l 0,-2.844 c 0,-0.226 0.014,-0.373 0.039,-0.441 0.02,-0.057 0.065,-0.104 0.133,-0.145 0.086,-0.053 0.182,-0.074 0.285,-0.074 l 0.147,0 z" /><path
           id="path132"
           style="fill:#e1a21b;fill-opacity:1;fill-rule:nonzero;stroke:none"
           d="m 344.3874,381.718 0.102,-0.033 -0.362,-1.188 -3.254,0 0,0.118 0.155,0 c 0.181,0 0.304,0.062 0.38,0.177 0.043,0.073 0.071,0.227 0.071,0.483 l 0,2.843 c 0,0.278 -0.033,0.452 -0.092,0.52 -0.08,0.1 -0.195,0.143 -0.359,0.143 l -0.155,0 0,0.117 1.891,0 0,-0.117 c -0.221,0 -0.375,-0.016 -0.459,-0.065 -0.09,-0.045 -0.156,-0.1 -0.186,-0.172 -0.033,-0.066 -0.048,-0.228 -0.048,-0.488 l 0,-2.779 c 0,-0.172 0.015,-0.297 0.048,-0.368 0.028,-0.044 0.065,-0.076 0.121,-0.105 0.049,-0.02 0.211,-0.027 0.483,-0.027 l 0.306,0 c 0.323,0 0.553,0.017 0.676,0.074 0.133,0.051 0.254,0.142 0.358,0.262 0.111,0.123 0.216,0.322 0.324,0.605" /><path
           id="path134"
           style="fill:#e1a21b;fill-opacity:1;fill-rule:nonzero;stroke:none"
           d="m 212.319,394.6731 c -0.383,-4.988 -4.605,-5.32 -4.605,-5.32 2.435,1.392 2.589,4.383 2.589,4.383 0.305,4.753 -2.509,6.865 -2.509,6.865 4.66,-1.149 4.525,-5.928 4.525,-5.928 m -5.842,-5.414 c 0,0 -2.004,-0.578 -3.865,0.611 0,0 -0.846,0.42 -0.695,3.369 l 0.041,7.838 4.049,0 c 0,0 2.621,-0.535 3.537,-4.174 0,0 1.673,-6.072 -3.067,-7.644 m -8.951,0.248 c 0,0 1.457,0.605 1.299,2.621 l 0,16.631 0,1.639 -1.17,1.23 4.391,0.014 -1.493,-1.36 0,-18.675 c 0,0 -0.039,-1.42 1.338,-2.1 l -4.365,0 z m 9.09,20.775 c 0,0 1.605,-1.767 1.064,-5.67 -0.576,-4.211 -5.744,-2.927 -5.744,-2.927 l 0.037,8.554 c 0,0 1.498,3.293 4.643,0.043 m 2.012,0.194 c 3.089,-3.53 1.003,-6.658 1.003,-6.658 -1.939,-2.944 -3.664,-2.249 -3.664,-2.249 2.442,1.022 2.348,4.143 2.348,4.143 0.244,4.865 -2.885,6.045 -2.885,6.045 1.717,0.357 3.198,-1.281 3.198,-1.281 m -0.487,-9.055 c 4.504,1.4 3.131,6.527 3.131,6.527 -1.875,4.436 -5.349,4.352 -5.349,4.352 l -9.85,0 0.076,-0.514 c 0.996,0.125 1.227,-0.32 1.227,-0.32 l 1.029,-1.283 0,-17.729 c 0.342,-2.082 -1.49,-2.843 -1.49,-2.843 l -0.766,-0.155 0,-0.758 10.731,0 c 5.837,-0.043 6.371,4.639 6.371,4.639 0.888,2.682 -0.414,4.762 -0.414,4.762 -1.639,2.881 -4.696,3.322 -4.696,3.322" /><path
           id="path136"
           style="fill:#e1a21b;fill-opacity:1;fill-rule:nonzero;stroke:none"
           d="m 395.9479,393.2981 c -0.293,-3.842 -3.541,-4.092 -3.541,-4.092 1.877,1.069 1.988,3.367 1.988,3.367 0.239,3.663 -1.924,5.284 -1.924,5.284 3.584,-0.875 3.477,-4.559 3.477,-4.559 m -4.492,-4.172 c 0,0 -1.547,-0.432 -2.973,0.479 0,0 -0.652,0.314 -0.537,2.584 l 0.027,6.033 3.118,0 c 0,0 2.019,-0.412 2.724,-3.207 0,0 1.291,-4.682 -2.359,-5.889 m -6.891,0.195 c 0,0 1.125,0.469 1.008,2.012 l 0,12.799 0,1.268 -0.902,0.949 3.375,0.017 -1.145,-1.056 0,-14.383 c 0,0 -0.037,-1.078 1.027,-1.606 l -3.363,0 z m 6.996,15.989 c 0,0 1.229,-1.366 0.823,-4.364 -0.448,-3.24 -4.42,-2.256 -4.42,-2.256 l 0.035,6.583 c 0,0 1.14,2.537 3.562,0.037 m 1.549,0.146 c 2.379,-2.72 0.77,-5.131 0.77,-5.131 -1.492,-2.257 -2.819,-1.722 -2.819,-1.722 1.879,0.787 1.807,3.193 1.807,3.193 0.193,3.74 -2.217,4.643 -2.217,4.643 1.317,0.285 2.459,-0.983 2.459,-0.983 m 3.24,-9.521 c -1.263,2.215 -3.617,2.554 -3.617,2.554 3.471,1.086 2.41,5.02 2.41,5.02 -1.439,3.416 -4.113,3.349 -4.113,3.349 l -7.582,0 0.066,-0.396 c 0.764,0.096 0.932,-0.246 0.932,-0.246 l 0.799,-0.984 0,-13.639 c 0.262,-1.6 -1.15,-2.188 -1.15,-2.188 l -0.581,-0.123 0,-0.584 8.252,0 c 4.491,-0.031 4.909,3.577 4.909,3.577 0.679,2.06 -0.325,3.66 -0.325,3.66" /><path
           id="path138"
           style="fill:#e1a21b;fill-opacity:1;fill-rule:nonzero;stroke:none"
           d="m 379.526,406.4231 c -0.209,-0.361 -0.775,-2.438 -0.775,-2.438 -0.385,1.493 -1.764,2.348 -1.764,2.348 l 2.539,0.09 z m -12.557,-11.572 0,10.515 -0.839,1.139 3.13,0 -1.004,-1.049 0,-10.545 c 0,0 -0.08,-2.73 3.581,-5.744 0,0 -3.946,0.039 -4.868,5.684 m 8.053,11.74 c 0,0 2.627,0.09 3.641,-3.281 l -0.069,-8.692 c 0,0 -0.806,-4.916 -4.824,-5.066 0,0 -3.996,0.238 -4.338,4.334 l -0.021,11.125 c 0,0 0.162,1.554 1.947,1.494 l 0.199,0 0,0.324 -6.871,0 0,-0.291 c 0,0 1.479,0.195 1.948,-1.547 0,0 -0.219,-9.791 0.091,-10.73 0,0 0.639,-6.145 6.895,-5.531 0,0 4.197,0.209 5.285,5.505 l 0.16,8.813 c 0,0 0.461,2.902 2.494,3.371 l 0.225,0.119 0.029,0.315 -6.791,0 0,-0.262 z" /><path
           id="path140"
           style="fill:#e1a21b;fill-opacity:1;fill-rule:nonzero;stroke:none"
           d="m 297.7799,394.2863 c 0,0 -1.041,3.199 -1.48,3.301 0,0 1.134,-0.049 3.109,-4.385 0,0 1.072,-3.51 3.09,-4.387 0,0 -2.451,-0.466 -4.719,5.471 m -4.391,4.332 0,6.608 c 0.692,2.224 3.551,0.99 3.551,0.99 3.783,-2.326 1.131,-6.821 1.131,-6.821 -0.543,-1.24 -4.682,-0.777 -4.682,-0.777 m 7.25,4.604 c 0.485,-4.389 -2.419,-4.344 -2.419,-4.344 3.003,4.181 -0.338,7.285 -0.338,7.285 2.556,-0.727 2.757,-2.941 2.757,-2.941 m -10.794,-14.045 0.935,1.238 0.299,15.021 -0.936,1.03 3.006,0 -1.08,-1.03 0,-14.605 1.129,-1.654 -3.353,0 z m 12.375,0.599 c 0,0 -1.045,1.319 -1.76,3.571 0,0 -1.487,4.058 -3.979,4.658 0,0 5.422,-0.338 5.422,3.5 0,0 0.568,5.181 -5.955,5.474 l -7.244,0 0,-0.525 c 0,0 1.82,0.104 1.695,-1.978 l 0,-12.817 c 0,0 0.483,-1.584 -1.695,-2.385 l 0,-0.355 6.646,0 0,0.392 c 0,0 -2.113,-0.425 -2.146,2.743 l 0.033,6.105 c 0,0 2.424,0.668 3.023,-1.574 0,0 2.395,-10.277 8.161,-7.867 l 0,0.168 c 0,0 -1.446,-0.303 -2.201,0.89" /><path
           id="path142"
           style="fill:#e1a21b;fill-opacity:1;fill-rule:nonzero;stroke:none"
           d="m 314.1803,390.2063 c 0,0 2.873,4.555 -1.537,6.693 0,0 -5.082,1.577 -5.516,3.995 0,0 -1.156,3.097 1.766,5.113 0,0 -3.895,-4.93 2.33,-6.76 0,0 8.078,-1.883 2.957,-9.041 m -7.623,-0.336 0,2.068 c 0.447,-1.33 2.871,-2.781 2.871,-2.781 -1.48,0.029 -2.871,0.713 -2.871,0.713 m 6.408,16.783 1.578,0 0.379,-2.322 c 0,0 -0.742,1.984 -2.006,2.322 l 0.049,0 z m -0.521,-6.717 c -3.369,0.686 -3.881,3.096 -3.881,3.096 -0.697,3.283 2.57,3.691 2.57,3.691 2.963,0.147 4.408,-4.747 4.408,-4.747 l 0.418,0 -0.531,5.082 c -1.016,-0.223 -2.395,-0.028 -2.395,-0.028 -2.423,0.281 -3.255,-0.158 -3.255,-0.158 -5.024,-2.016 -2.862,-6.664 -2.862,-6.664 1.36,-2.352 5.022,-3.465 5.022,-3.465 4.289,-1.299 2.474,-5.197 2.474,-5.197 -2.296,-4.25 -5.132,-1.676 -5.132,-1.676 -2.075,1.24 -2.993,5.322 -2.993,5.322 l -0.406,0 0.385,-5.724 c 1.977,-1.061 4.91,-0.75 4.91,-0.75 7.229,1.394 5.197,7.466 5.197,7.466 -0.388,2.694 -3.929,3.752 -3.929,3.752" /><path
           id="path144"
           style="fill:#e1a21b;fill-opacity:1;fill-rule:nonzero;stroke:none"
           d="m 250.3542,406.4758 c 0,0 0.533,-0.195 -0.637,-2.242 0,0 -1.263,1.998 -1.707,2.242 l 2.344,0 z m -0.682,-17.289 -14.015,17.248 1.853,0 12.162,-15.461 0,-1.787 z m -12.312,0.156 -1.994,0 c 0.675,0.262 1.359,1.943 1.359,1.943 l 0.635,-1.943 z m 8.986,17.244 c 0,0 2.004,0 3.221,-3.324 l 0,-10.08 -10.787,13.656 -4.69,-0.045 0.102,-0.412 c 0,0 1.465,0.094 2.392,-1.846 l 0,-11.966 c 0,0 -0.787,-3.332 -2.541,-3.332 l 0,-0.299 6.204,0 0,0.35 c 0,0 -2.887,-0.614 -3.227,4.046 l 0,10.899 12.451,-15.608 c 0,0 0.694,-0.511 0.545,0.717 l 0,13.863 c 0,0 0.477,3.026 2.533,3.27 l 0,0.363 -6.203,0 0,-0.252 z" /><path
           id="path146"
           style="fill:#e1a21b;fill-opacity:1;fill-rule:nonzero;stroke:none"
           d="m 226.6764,389.343 c 1.801,1.223 0.775,3.635 0.775,3.635 l -4.101,10.74 0.681,1.539 4.545,-11.922 c 0.834,-2.92 2.295,-3.992 2.295,-3.992 l -4.195,0 z m -6.252,6.447 c -0.395,0.053 0.143,0.819 0.143,0.819 l 5.08,-0.045 0.097,-0.774 -5.32,0 z m 2.732,7.162 2.192,-5.884 -4.535,-0.053 2.343,5.937 z m -6.541,-13.765 1.657,2.256 0.05,-2.1 -1.707,-0.156 z m 13.114,4.064 -5.26,14.041 -5.84,-14.345 c -1.107,-2.672 -3.211,-3.79 -3.211,-3.79 l -0.203,-0.214 5.43,0 0,0.306 c -2.184,-0.133 -1.885,2.662 -1.885,2.662 l 1.346,3.491 5.797,0.043 0.414,-0.772 c 2.582,-4.174 -0.327,-5.34 -0.327,-5.34 l -0.779,-0.127 0,-0.345 7.69,0 0,0.388 c -1.649,-0.431 -3.172,4.002 -3.172,4.002" /><path
           id="path148"
           style="fill:#e1a21b;fill-opacity:1;fill-rule:nonzero;stroke:none"
           d="m 326.1608,397.927 c 0,0 -1.582,7.98 4.908,12.834 0,0 -4.289,-4.084 -3.357,-12.352 0,0 0.763,-6.519 6.025,-8.988 0,0 -5.562,0.686 -7.576,8.506 m 16.006,13.609 0.992,-3.652 c -0.682,1.867 -4.049,3.685 -4.049,3.685 l 3.057,-0.033 z m -5.682,-22.283 c -9.318,0.645 -7.267,15.151 -7.267,15.151 0.421,8.054 5.603,7.568 5.603,7.568 6.76,-0.037 9.74,-7.205 9.74,-7.205 l 0.305,0.332 c -1.082,2.59 -1.127,7.566 -1.127,7.566 -2.543,-1.013 -4.506,-0.603 -4.506,-0.603 -3.875,0.847 -5.691,0.234 -5.691,0.234 -9.69,-3.191 -7.922,-13.723 -7.922,-13.723 0.848,-8.263 8.076,-9.72 8.076,-9.72 8.153,-1.821 11.473,6.078 11.473,6.078 l -0.53,0.199 c -3.332,-6.07 -8.154,-5.877 -8.154,-5.877" /><path
           id="path150"
           style="fill:#e1a21b;fill-opacity:1;fill-rule:nonzero;stroke:none"
           d="m 360.3307,389.3117 -3.779,0 c 1.869,0.231 4.591,2.869 4.591,2.869 l -0.812,-2.869 z m -11.248,0.018 0.961,1.265 0.099,14.977 -0.835,0.912 3.078,0 -0.971,-1.02 0,-15.035 1.045,-1.099 -3.377,0 z m 5.385,-0.077 c 0,0 -1.815,-0.154 -1.912,1.618 l 0,14.14 c 0,0 -0.112,1.559 2.279,1.451 l -0.053,0.272 -6.793,0 c 0,0 1.115,-0.272 1.428,-1 l 0.213,-14.967 c 0,0 -0.213,-1.064 -1.803,-1.514 l 0,-0.375 13.75,0 1.277,5.559 -0.423,-0.064 c 0,0 -3.83,-5.12 -7.963,-5.12" /><path
           id="path152"
           style="fill:#e1a21b;fill-opacity:1;fill-rule:nonzero;stroke:none"
           d="m 263.5885,389.3215 c 1.492,0.994 0.264,2.387 0.264,2.387 l -4.781,7.07 1.013,0.836 c 6.533,-10.361 7.44,-10.293 7.44,-10.293 l -3.936,0 z m -4.672,0 -3.564,0 0.908,1.111 0.168,14.356 0.252,0.617 -0.899,0.998 2.873,0 -0.957,-1.057 0.055,-14.857 1.164,-1.168 z m 6.795,17.141 c 0,0 -0.418,-1.452 -1.328,-1.784 0,0 0.271,1.17 -0.266,1.838 l 1.594,-0.054 z m 1.645,-15.475 -6.422,9.408 3.183,3.336 c 1.495,1.725 4.623,2.897 4.623,2.897 l 0,0.222 -6.476,0 0,-0.281 0.26,0 c 2.4,-0.326 1.064,-2.559 1.064,-2.559 l -4.77,-4.681 0,5.799 c 0.84,1.722 1.848,1.441 1.848,1.441 l 0,0.281 -6.527,0 0,-0.281 c 1.543,0.059 1.91,-1.723 1.91,-1.723 l 0.051,-13.474 c -0.102,-1.559 -1.912,-2.051 -1.912,-2.051 l 0,-0.504 6.533,0 0,0.393 c -1.754,0.111 -1.965,1.716 -1.965,1.716 l 0,7.461 4.672,-6.781 c 0.955,-2.012 -0.74,-2.285 -0.74,-2.285 l -0.717,-0.254 0.293,-0.311 7.596,0 0,0.401 c -1.495,0.164 -2.504,1.83 -2.504,1.83" /><path
           id="path154"
           style="fill:#e1a21b;fill-opacity:1;fill-rule:nonzero;stroke:none"
           d="m 284.7272,389.6067 -3.471,0 c 2.383,0.908 4.182,3.029 4.182,3.029 l -0.711,-3.029 z m -11.998,-0.285 c 0,0 1.174,0.285 1.217,2.133 l 0,13.802 -1.016,1.268 3.6,0 -1.238,-1.289 0,-14.272 c 0,0 -0.135,-0.941 1.238,-1.642 l -3.801,0 z m 10.98,17.203 0.639,-2.738 c 0,0 -1.531,2.087 -3.453,2.738 l 2.814,0 z m -2.73,-6.975 -0.045,-1.904 -1.385,0.973 1.43,0.931 z m -2.932,-10.267 c 0,0 -2.152,0.324 -1.761,3.195 l 0,5.608 2.55,0 c 0,0 2.731,0.408 3.006,-3.932 l 0.27,0 0,8.152 -0.27,0 c 0,0 -0.377,-3.72 -3.592,-3.72 l -1.964,0 0,6.505 c 0,0 0.433,2.625 4.853,0.823 0,0 2.846,-1.231 3.399,-3.645 l 0.47,0 -0.244,4.627 -12.81,0 0.035,-0.252 1.017,-0.523 0.547,-1.11 0,-13.802 c 0,0 -0.043,-1.35 -2.035,-1.926 l 0,-0.405 13.797,0 1.211,5.682 -0.309,0.049 c 0,0 -2.812,-4.51 -8.17,-5.326" /><path
           id="path156"
           style="fill:#e1a21b;fill-opacity:1;fill-rule:nonzero;stroke:none"
           d="m 300.2897,422.8918 c 0,0 4.545,2.219 4.363,9.518 0,0 -0.478,6.416 -4.24,9.083 0,0 7.692,-1.586 7.627,-9.65 0,0 0,-7.685 -7.75,-8.951 m -1.084,0.213 c -2.506,-0.734 -5.377,-0.113 -5.377,-0.113 -3.379,0.715 -2.867,4.47 -2.867,4.47 l 0.058,5.123 c 0.739,-1.55 3.5,-4.099 3.5,-4.099 3.137,-2.942 7.7,-2.756 7.7,-2.756 -1.26,-2.137 -3.014,-2.625 -3.014,-2.625 m -15.543,0.146 1.842,1.94 c 0,0 0.344,0.264 0.433,1.174 l 0.252,28.624 c 0,0 -0.171,0.814 0.61,1.084 l 0.084,0.718 -2.324,2.528 6.98,-0.18 -2.418,-1.986 -0.428,-30.611 c 0,0 -0.345,-1.263 2.291,-3.291 l -7.322,0 z m 11.363,36.021 c 0,0 3.09,-0.648 4.092,-3.16 0,0 -4.48,-0.975 -7.963,-6.405 l 0.076,6.729 c 0,0 1.084,3 3.795,2.836 m -1.578,-17.141 c 6.235,0.883 8.264,-2.86 8.264,-2.86 4.908,-7.365 1.002,-12.828 1.002,-12.828 -10.416,1.394 -9.266,15.688 -9.266,15.688 m 6.102,13.471 c 0,0 3.851,-7.883 -1.703,-12.088 0,0 -2,-1.07 -4.389,-0.596 0,0 -0.498,10.809 6.092,12.684 m -7.905,-14.793 c 1.028,-11.718 7.95,-14.157 7.95,-14.157 -10.535,3.666 -10.155,13.546 -10.155,13.546 -0.125,10.914 7.114,14.158 7.114,14.158 -4.582,-4.195 -4.909,-13.547 -4.909,-13.547 m 13.245,9.301 c 0,0 -0.172,-7.676 -7.233,-7.315 0,0 4.653,1.715 3.785,8.489 0,0 0.088,5.06 -4.564,7.949 0,0 7.668,0.086 8.012,-9.123 m 5.943,4.967 1.297,-4.694 c -0.953,2.348 -5.428,4.875 -5.428,4.875 l 4.131,-0.181 z m -1.463,-26.189 c 2.926,11.741 -8.271,13.632 -8.271,13.632 9.392,3.389 4.134,12.516 4.134,12.516 6.247,-2.62 8.579,-8.629 8.579,-8.629 l 0.509,0.181 c -1.976,6.233 -1.424,9.895 -1.424,9.895 -4.515,-1.668 -8.49,-0.283 -8.49,-0.283 -3.203,3.67 -6.164,3.627 -6.164,3.627 l -16.648,0.185 0,-0.637 1.666,-0.142 c 0.609,0 2.244,-2.621 2.244,-2.621 l -0.344,-30.07 c -0.601,-2.709 -3.967,-3.338 -3.967,-3.338 l 0.092,-0.544 16.879,-0.45 c 8.619,-0.896 10.684,5.418 10.684,5.418 3.711,1.901 5.685,6.317 5.685,6.317 l -0.517,0.275 c -2.233,-4.066 -4.647,-5.332 -4.647,-5.332" /><path
           id="path158"
           style="fill:#e1a21b;fill-opacity:1;fill-rule:nonzero;stroke:none"
           d="m 318.3366,459.2619 c -1.85,0.756 -3.252,2.506 -3.674,4.664 -0.084,0.387 -0.133,0.789 -0.14,1.197 l -1.42,0 -31.819,0 -1.445,0 c -0.057,-0.414 -0.133,-0.814 -0.248,-1.197 -0.627,-2.127 -2.236,-3.764 -4.227,-4.293 -0.365,-0.088 -0.75,-0.141 -1.146,-0.15 l 0,-1.512 0,-32.64 0,-1.539 c 0.398,-0.054 0.785,-0.15 1.146,-0.291 1.774,-0.662 3.166,-2.228 3.725,-4.211 0.1,-0.381 0.174,-0.783 0.215,-1.191 l 1.447,0 31.856,0 1.466,0 c 0.069,0.408 0.176,0.814 0.311,1.191 0.682,1.895 2.139,3.354 3.953,3.887 0.359,0.105 0.746,0.17 1.139,0.199 l 0,1.512 0,32.505 0,1.545 c -0.395,0.068 -0.78,0.179 -1.139,0.324 m 0,-34.501 c -2.645,-0.514 -4.771,-2.664 -5.51,-5.471 l -32.234,0 c -0.588,2.885 -2.629,5.162 -5.229,5.844 l 0,32.927 c 2.828,0.484 5.096,2.826 5.75,5.865 l 32.063,0 c 0.428,-3.064 2.48,-5.539 5.16,-6.309 l 0,-32.856 z" /></g></g></g></svg>